# xmcd CD database file
#
# Track frame offsets:
#	150
#	12212
#	25695
#	48587
#	65112
#	77277
#	91580
#	103763
#	116970
#	136575
#	156912
#	168242
#	190055
#	203645
#	219098
#	236052
#
# Disc length: 3308 seconds
#
# Revision: 0
# Processed by: cddbd v1.5.1PL2 Copyright (c) Steve Scherf et al.
# Submitted via: CDex 1.51
#
DISCID=c60cea10
DTITLE=Juanucho Lopez - El poder de la salsa
DYEAR=1997
DGENRE=Salsa
TTITLE0=Moliendo cafe
TTITLE1=El platanal de bartolo
TTITLE2=Charanguri
TTITLE3=On schucks boogaloo
TTITLE4=Charranga en changa
TTITLE5=Almendra
TTITLE6=El colectivo de las siete
TTITLE7=Aprietala
TTITLE8=NO NO NO
TTITLE9=Lagrimas de un preso
TTITLE10=Puerta de tierra
TTITLE11=Buscando alivio
TTITLE12=Sandonga
TTITLE13=Pilando Arroz
TTITLE14=El emigrante
TTITLE15=San Francisco
EXTD=YEAR: 1997
EXTT0=
EXTT1=
EXTT2=
EXTT3=
EXTT4=
EXTT5=
EXTT6=
EXTT7=
EXTT8=
EXTT9=
EXTT10=
EXTT11=
EXTT12=
EXTT13=
EXTT14=
EXTT15=
PLAYORDER=
